<svg width="176" height="39" viewBox="0 0 176 39" fill="none" xmlns="http://www.w3.org/2000/svg">
<g id="logo">
<g id="Nicolas-Gonzalez">
<path id="Vector" d="M166.156 13.1331L170.845 3.9111H166.489V0.311172H176V3.4L171.178 12.5776H175.978V16.1775H166.156V13.1331Z" fill="white"/>
<path id="Vector_2" d="M155.489 16.1775V0.311172H165.044V3.9111H159.933V6.3555H164.711V9.8221H159.933V12.5776H165.244V16.1775H155.489Z" fill="white"/>
<path id="Vector_3" d="M145.203 16.1775V0.311172H149.647V12.5776H154.491V16.1775H145.203Z" fill="white"/>
<path id="Vector_4" d="M139.909 16.1775L139.42 13.7554H136.442L135.998 16.1775H131.42L135.175 0.311172H140.753L144.486 16.1775H139.909ZM138.931 10.2888L137.975 3.77777H137.931L136.909 10.2888H138.931Z" fill="white"/>
<path id="Vector_5" d="M121.299 13.1331L125.988 3.9111H121.632V0.311172H131.143V3.4L126.321 12.5776H131.121V16.1775H121.299V13.1331Z" fill="white"/>
<path id="Vector_6" d="M115.77 9.99987V0.311172H119.948V16.1775H115.193L112.726 6.39994H112.682V16.1775H108.637V0.311172H113.459L115.726 9.99987H115.77Z" fill="white"/>
<path id="Vector_7" d="M102.667 8.24428C102.667 3.59993 102.489 2.93328 101.533 2.93328C100.578 2.93328 100.4 3.59993 100.4 8.24428C100.4 12.8886 100.578 13.5553 101.533 13.5553C102.489 13.5553 102.667 12.8886 102.667 8.24428ZM95.8223 8.24428C95.8223 3.33327 95.8223 0 101.533 0C107.244 0 107.244 3.33327 107.244 8.24428C107.244 13.3108 107.244 16.4886 101.533 16.4886C95.8223 16.4886 95.8223 13.3108 95.8223 8.24428Z" fill="white"/>
<path id="Vector_8" d="M89.3184 10.4665V7.53318H94.7628V16.1775H91.6739L91.5628 14.8886H91.5184C90.7628 16.2886 89.5406 16.4886 88.2518 16.4886C83.7408 16.4886 83.6074 12.5331 83.6074 8.2665C83.6074 3.73326 83.8519 0 89.274 0C93.6739 0 94.6294 2.19996 94.6294 5.37767H90.4517V4.73324C90.4517 3.55549 90.1851 2.93328 89.3184 2.93328C88.2518 2.93328 88.1851 3.93326 88.1851 4.88879V11.422C88.1851 12.3998 88.274 13.5553 89.3406 13.5553C90.4073 13.5553 90.5851 12.7331 90.5851 11.5553V10.4665H89.3184Z" fill="white"/>
<path id="Vector_9" d="M72.2546 4.86657V4.22214C72.2546 3.55549 71.9658 2.93328 71.2102 2.93328C70.5436 2.93328 70.188 3.48882 70.188 4.13325C70.188 7.28874 76.8101 5.66655 76.8101 11.3331C76.8101 15.0219 75.099 16.4886 70.988 16.4886C67.5881 16.4886 65.7214 15.333 65.7214 11.8442V11.422H70.0325V12.1553C70.0325 12.9331 70.3658 13.5553 71.1435 13.5553C71.9658 13.5553 72.2324 12.8442 72.2324 12.1553C72.2324 11.1331 71.8546 10.9109 71.2769 10.5776C70.6769 10.2442 69.8769 9.93314 69.0769 9.53314C66.677 8.33317 65.877 7.46652 65.877 5.11101C65.877 2.91105 66.5436 1.71108 67.5658 0.977759C68.3214 0.444437 69.4547 0 71.188 0C75.6768 0 76.4323 2.22218 76.4323 4.86657H72.2546Z" fill="white"/>
<path id="Vector_10" d="M60.872 16.1775L60.3831 13.7554H57.4054L56.961 16.1775H52.3833L56.1388 0.311172H61.7164L65.4497 16.1775H60.872ZM59.8943 10.2888L58.9387 3.77777H58.8943L57.8721 10.2888H59.8943Z" fill="white"/>
<path id="Vector_11" d="M43.1191 16.1775V0.311172H47.5635V12.5776H52.4078V16.1775H43.1191Z" fill="white"/>
<path id="Vector_12" d="M37.2152 8.24428C37.2152 3.59993 37.0374 2.93328 36.0818 2.93328C35.1263 2.93328 34.9485 3.59993 34.9485 8.24428C34.9485 12.8886 35.1263 13.5553 36.0818 13.5553C37.0374 13.5553 37.2152 12.8886 37.2152 8.24428ZM30.3708 8.24428C30.3708 3.33327 30.3708 0 36.0818 0C41.7928 0 41.7928 3.33327 41.7928 8.24428C41.7928 13.3108 41.7928 16.4886 36.0818 16.4886C30.3708 16.4886 30.3708 13.3108 30.3708 8.24428Z" fill="white"/>
<path id="Vector_13" d="M25.1236 6.17766V4.88879C25.1236 4.19992 25.1236 2.93328 24.2125 2.93328C23.0569 2.93328 23.0125 3.73326 23.0125 8.24428C23.0125 12.8886 23.1236 13.5553 24.2125 13.5553C24.9236 13.5553 25.2125 12.8442 25.2125 10.8665V9.64425H29.5235V10.6442C29.5235 14.3553 28.0346 16.4886 24.1458 16.4886C18.4348 16.4886 18.4348 13.3108 18.4348 8.24428C18.4348 3.33327 18.4348 0 24.1458 0C28.8791 0 29.4346 2.55551 29.4346 5.02212V6.17766H25.1236Z" fill="white"/>
<path id="Vector_14" d="M12.8838 16.1775V0.311172H17.3281V16.1775H12.8838Z" fill="white"/>
<path id="Vector_15" d="M7.13319 9.99985V0.311157H11.3109V16.1775H6.55543L4.08881 6.39993H4.04436V16.1775H0V0.311157H4.82213L7.08875 9.99985H7.13319Z" fill="white"/>
</g>
<g id="Full-stack Developer">
<path id="Vector_16" d="M129.875 35.3767V27.9287H131.541L131.751 29.2167H131.779C132.185 28.4607 132.633 27.7327 133.823 27.7327C133.949 27.7327 134.075 27.7467 134.201 27.7607V29.7487C134.033 29.7207 133.823 29.7207 133.641 29.7207C132.115 29.7207 131.835 30.6727 131.835 31.4987V35.3767H129.875Z" fill="white"/>
<path id="Vector_17" d="M126.478 33.1927H128.494C127.976 34.9847 126.492 35.5727 125.218 35.5727C123.118 35.5727 121.508 34.5647 121.508 31.4987C121.508 30.6027 121.816 27.7327 125.078 27.7327C126.548 27.7327 128.578 28.4327 128.578 31.8347V32.1847H123.468C123.524 32.7447 123.636 34.0047 125.218 34.0047C125.764 34.0047 126.324 33.7247 126.478 33.1927ZM123.524 30.9107H126.562C126.45 29.7067 125.68 29.3427 125.05 29.3427C124.126 29.3427 123.636 29.9307 123.524 30.9107Z" fill="white"/>
<path id="Vector_18" d="M115.357 31.8207C115.357 32.9267 115.833 33.9627 117.079 33.9627C118.339 33.9627 118.689 32.5907 118.689 31.7087C118.689 30.5327 118.269 29.4267 117.023 29.4267C115.679 29.4267 115.357 30.6307 115.357 31.8207ZM115.147 27.9287L115.357 29.0067H115.385C115.749 28.4187 116.295 27.7327 117.611 27.7327C119.249 27.7327 120.705 28.9927 120.705 31.5687C120.705 33.6127 119.781 35.5727 117.569 35.5727C116.197 35.5727 115.707 34.8307 115.469 34.4247H115.441V38.2747H113.481V27.9287H115.147Z" fill="white"/>
<path id="Vector_19" d="M112.16 31.6527C112.16 34.3407 110.354 35.5727 108.352 35.5727C106.35 35.5727 104.544 34.3407 104.544 31.6527C104.544 28.9647 106.35 27.7327 108.352 27.7327C110.354 27.7327 112.16 28.9647 112.16 31.6527ZM110.144 31.6527C110.144 30.7007 109.864 29.3847 108.352 29.3847C106.84 29.3847 106.56 30.7007 106.56 31.6527C106.56 32.6047 106.84 33.9207 108.352 33.9207C109.864 33.9207 110.144 32.6047 110.144 31.6527Z" fill="white"/>
<path id="Vector_20" d="M103.7 34.0467C103.742 34.0467 103.77 34.0467 103.812 34.0467V35.5027C103.658 35.5447 103.49 35.5727 103.294 35.5727C102.034 35.5727 101.138 35.0407 101.138 34.1307V25.3247H103.098V33.5847C103.154 33.9207 103.378 34.0467 103.7 34.0467Z" fill="white"/>
<path id="Vector_21" d="M97.6846 33.1927H99.7006C99.1826 34.9847 97.6986 35.5727 96.4246 35.5727C94.3246 35.5727 92.7146 34.5647 92.7146 31.4987C92.7146 30.6027 93.0226 27.7327 96.2846 27.7327C97.7546 27.7327 99.7846 28.4327 99.7846 31.8347V32.1847H94.6746C94.7306 32.7447 94.8426 34.0047 96.4246 34.0047C96.9706 34.0047 97.5306 33.7247 97.6846 33.1927ZM94.7306 30.9107H97.7686C97.6566 29.7067 96.8866 29.3427 96.2566 29.3427C95.3326 29.3427 94.8426 29.9307 94.7306 30.9107Z" fill="white"/>
<path id="Vector_22" d="M92.4886 27.9287L89.8006 35.3767H87.7426L85.0686 27.9287H87.2526L88.7926 33.4167H88.8206L90.4026 27.9287H92.4886Z" fill="white"/>
<path id="Vector_23" d="M82.6045 33.1927H84.6205C84.1025 34.9847 82.6185 35.5727 81.3445 35.5727C79.2445 35.5727 77.6345 34.5647 77.6345 31.4987C77.6345 30.6027 77.9425 27.7327 81.2045 27.7327C82.6745 27.7327 84.7045 28.4327 84.7045 31.8347V32.1847H79.5945C79.6505 32.7447 79.7625 34.0047 81.3445 34.0047C81.8905 34.0047 82.4505 33.7247 82.6045 33.1927ZM79.6505 30.9107H82.6885C82.5765 29.7067 81.8065 29.3427 81.1765 29.3427C80.2525 29.3427 79.7625 29.9307 79.6505 30.9107Z" fill="white"/>
<path id="Vector_24" d="M68.2729 35.3767V25.3247H72.7109C76.0989 25.3247 76.799 28.2087 76.799 30.1127C76.799 32.2687 75.9449 35.3767 72.6269 35.3767H68.2729ZM70.3309 27.0607V33.6407H72.3749C74.0829 33.6407 74.6569 31.9187 74.6569 30.2667C74.6569 27.2987 73.2429 27.0607 72.3469 27.0607H70.3309Z" fill="white"/>
<path id="Vector_25" d="M58.4593 33.0247V35.3767H56.4993V25.3247H58.4593V30.7567L60.9233 27.9287H63.3313L60.6993 30.8127L63.4013 35.3767H61.0493L59.2713 32.1847L58.4593 33.0247Z" fill="white"/>
<path id="Vector_26" d="M53.3614 32.6607H55.3494C55.2794 33.4307 54.6774 35.5727 51.9474 35.5727C49.1474 35.5727 48.5034 33.4307 48.5034 31.8627C48.5034 29.4547 49.5534 27.7327 52.0734 27.7327C53.2494 27.7327 55.1814 28.2647 55.3634 30.5887H53.3754C53.2914 30.1127 53.0114 29.3847 52.1714 29.3847H52.0734C50.8414 29.3847 50.5194 30.6167 50.5194 31.5407C50.5194 32.3527 50.5474 33.9627 52.0314 33.9627C53.0254 33.9627 53.3614 33.0107 53.3614 32.6607Z" fill="white"/>
<path id="Vector_27" d="M47.7941 33.9907C47.8361 33.9907 47.8641 33.9907 47.9061 33.9907V35.4467C47.7521 35.4747 47.5841 35.5027 47.3881 35.5027C46.1281 35.5027 45.6101 35.0267 45.4001 34.4247C45.3721 34.4527 45.3441 34.4667 45.3301 34.4947C44.8821 34.9567 44.2521 35.5727 42.9221 35.5727C41.8021 35.5727 40.6541 34.9427 40.6541 33.4027C40.6541 31.9467 41.5781 31.2047 42.8241 31.0227L45.2741 30.7567V30.1687C45.2741 29.3427 44.4901 29.3007 43.9861 29.3007C43.0061 29.3007 42.8381 29.9027 42.7821 30.3367H40.8921C41.1161 28.0547 42.6981 27.7327 44.2241 27.7327C45.2741 27.7327 47.1921 28.0547 47.1921 29.8887V33.5287C47.2481 33.8507 47.4721 33.9907 47.7941 33.9907ZM43.5241 34.1727C44.3641 34.1727 45.2181 33.6547 45.2741 32.7867V32.0587C45.2741 32.0587 44.0701 32.1427 43.9441 32.1567C43.2161 32.2827 42.6141 32.4647 42.6141 33.2767C42.6141 33.9627 43.1461 34.1727 43.5241 34.1727Z" fill="white"/>
<path id="Vector_28" d="M38.6938 25.9127V27.9287H39.9118V29.3287H38.6938V33.3747C38.6938 33.8087 38.7078 33.9767 39.5058 33.9767C39.6318 33.9767 39.7718 33.9627 39.9118 33.9487V35.4327C39.6038 35.4467 39.2958 35.4607 38.9878 35.4607H38.7358C37.0418 35.4607 36.7338 34.8167 36.7338 33.8507V29.3287H35.7258V27.9287H36.7338V25.9127H38.6938Z" fill="white"/>
<path id="Vector_29" d="M34.8486 30.1967H32.9306C32.8466 29.7207 32.6786 29.2167 31.6146 29.2167C30.5506 29.2167 30.4106 29.6227 30.4106 29.9447C30.4106 31.1207 35.0726 30.2667 35.0726 33.0107C35.0726 35.1807 32.9726 35.5727 31.8106 35.5727C30.1166 35.5727 28.2826 34.9847 28.2266 32.9967H30.2426C30.2426 33.6267 30.6346 34.0887 31.8666 34.0887C32.8746 34.0887 33.1126 33.5987 33.1126 33.3187C33.1126 32.0727 28.4926 33.0107 28.4926 30.2247C28.4926 29.1327 29.1786 27.7327 31.5026 27.7327C32.9586 27.7327 34.6946 28.0967 34.8486 30.1967Z" fill="white"/>
<path id="Vector_30" d="M27.4285 30.5467V32.3667H23.5225V30.5467H27.4285Z" fill="white"/>
<path id="Vector_31" d="M22.7761 34.0467C22.8181 34.0467 22.8461 34.0467 22.8881 34.0467V35.5027C22.7341 35.5447 22.5661 35.5727 22.3701 35.5727C21.1101 35.5727 20.2141 35.0407 20.2141 34.1307V25.3247H22.1741V33.5847C22.2301 33.9207 22.4541 34.0467 22.7761 34.0467Z" fill="white"/>
<path id="Vector_32" d="M18.8796 34.0467C18.9216 34.0467 18.9496 34.0467 18.9916 34.0467V35.5027C18.8376 35.5447 18.6696 35.5727 18.4736 35.5727C17.2136 35.5727 16.3176 35.0407 16.3176 34.1307V25.3247H18.2776V33.5847C18.3336 33.9207 18.5576 34.0467 18.8796 34.0467Z" fill="white"/>
<path id="Vector_33" d="M14.423 27.9287V35.3767H12.757L12.547 34.3267H12.519C12.071 35.1247 11.287 35.5727 10.251 35.5727C8.78104 35.5727 7.71704 34.7327 7.71704 32.8287V27.9287H9.67704V32.5487C9.67704 33.6967 10.349 33.9207 10.951 33.9207C11.595 33.9207 12.463 33.5567 12.463 32.2267V27.9287H14.423Z" fill="white"/>
<path id="Vector_34" d="M2.16396 31.1487V35.3767H0.0639648V25.3247H7.21797V27.1027H2.16396V29.3707H6.58797V31.1487H2.16396Z" fill="white"/>
</g>
</g>
</svg>
